<mxfile host="65bd71144e">
    <diagram id="nvWPy0uCigiv8mJn7yFe" name="PÃ¡gina-1">
        <mxGraphModel dx="896" dy="1783" grid="1" gridSize="10" guides="1" tooltips="1" connect="1" arrows="1" fold="1" page="1" pageScale="1" pageWidth="827" pageHeight="1169" math="0" shadow="0">
            <root>
                <mxCell id="0"/>
                <mxCell id="1" parent="0"/>
                <mxCell id="2" value="" style="rounded=0;whiteSpace=wrap;html=1;fillColor=#6a00ff;strokeColor=#3700CC;fontColor=#ffffff;" vertex="1" parent="1">
                    <mxGeometry x="40" y="50" width="250" height="260" as="geometry"/>
                </mxCell>
                <mxCell id="4" value="" style="rounded=0;whiteSpace=wrap;html=1;fillColor=#6a00ff;strokeColor=#3700CC;fontColor=#ffffff;" vertex="1" parent="1">
                    <mxGeometry x="460" y="50" width="250" height="260" as="geometry"/>
                </mxCell>
                <mxCell id="5" value="Pedido" style="text;html=1;strokeColor=none;fillColor=none;align=center;verticalAlign=middle;whiteSpace=wrap;rounded=0;" vertex="1" parent="1">
                    <mxGeometry x="135" y="60" width="60" height="30" as="geometry"/>
                </mxCell>
                <mxCell id="6" value="ListaPedidos" style="text;html=1;strokeColor=none;fillColor=none;align=center;verticalAlign=middle;whiteSpace=wrap;rounded=0;" vertex="1" parent="1">
                    <mxGeometry x="555" y="-5" width="60" height="160" as="geometry"/>
                </mxCell>
                <mxCell id="7" value="" style="endArrow=none;html=1;exitX=0;exitY=0.25;exitDx=0;exitDy=0;entryX=1;entryY=0.25;entryDx=0;entryDy=0;" edge="1" parent="1" source="2" target="2">
                    <mxGeometry width="50" height="50" relative="1" as="geometry">
                        <mxPoint x="390" y="340" as="sourcePoint"/>
                        <mxPoint x="440" y="290" as="targetPoint"/>
                    </mxGeometry>
                </mxCell>
                <mxCell id="8" value="" style="endArrow=none;html=1;exitX=0;exitY=0.25;exitDx=0;exitDy=0;entryX=1;entryY=0.25;entryDx=0;entryDy=0;" edge="1" parent="1" source="4" target="4">
                    <mxGeometry width="50" height="50" relative="1" as="geometry">
                        <mxPoint x="390" y="340" as="sourcePoint"/>
                        <mxPoint x="440" y="290" as="targetPoint"/>
                    </mxGeometry>
                </mxCell>
                <mxCell id="9" value="-Cliente: string" style="text;html=1;strokeColor=none;fillColor=none;align=center;verticalAlign=middle;whiteSpace=wrap;rounded=0;" vertex="1" parent="1">
                    <mxGeometry x="105" y="125" width="120" height="30" as="geometry"/>
                </mxCell>
                <mxCell id="10" value="-Mesa: string" style="text;html=1;strokeColor=none;fillColor=none;align=center;verticalAlign=middle;whiteSpace=wrap;rounded=0;" vertex="1" parent="1">
                    <mxGeometry x="110" y="155" width="110" height="30" as="geometry"/>
                </mxCell>
                <mxCell id="11" value="-descricao: string" style="text;html=1;strokeColor=none;fillColor=none;align=center;verticalAlign=middle;whiteSpace=wrap;rounded=0;" vertex="1" parent="1">
                    <mxGeometry x="115" y="185" width="110" height="30" as="geometry"/>
                </mxCell>
                <mxCell id="12" value="" style="endArrow=none;html=1;exitX=0;exitY=0.75;exitDx=0;exitDy=0;entryX=1;entryY=0.75;entryDx=0;entryDy=0;" edge="1" parent="1" source="2" target="2">
                    <mxGeometry width="50" height="50" relative="1" as="geometry">
                        <mxPoint x="390" y="310" as="sourcePoint"/>
                        <mxPoint x="440" y="260" as="targetPoint"/>
                    </mxGeometry>
                </mxCell>
                <mxCell id="13" value="+gerarId(): int" style="text;html=1;strokeColor=none;fillColor=none;align=center;verticalAlign=middle;whiteSpace=wrap;rounded=0;" vertex="1" parent="1">
                    <mxGeometry x="110" y="260" width="110" height="30" as="geometry"/>
                </mxCell>
                <mxCell id="14" value="-listaPedidos: [] string" style="text;html=1;strokeColor=none;fillColor=none;align=center;verticalAlign=middle;whiteSpace=wrap;rounded=0;" vertex="1" parent="1">
                    <mxGeometry x="510" y="125" width="150" height="30" as="geometry"/>
                </mxCell>
                <mxCell id="16" value="" style="endArrow=none;html=1;entryX=1;entryY=0.5;entryDx=0;entryDy=0;exitX=0;exitY=0.5;exitDx=0;exitDy=0;" edge="1" parent="1" source="4" target="4">
                    <mxGeometry width="50" height="50" relative="1" as="geometry">
                        <mxPoint x="390" y="290" as="sourcePoint"/>
                        <mxPoint x="440" y="240" as="targetPoint"/>
                    </mxGeometry>
                </mxCell>
                <mxCell id="17" value="+addPedido:&amp;nbsp; void" style="text;html=1;strokeColor=none;fillColor=none;align=center;verticalAlign=middle;whiteSpace=wrap;rounded=0;" vertex="1" parent="1">
                    <mxGeometry x="530" y="185" width="110" height="30" as="geometry"/>
                </mxCell>
                <mxCell id="18" value="+listarPedidos: return&amp;nbsp;" style="text;html=1;strokeColor=none;fillColor=none;align=center;verticalAlign=middle;whiteSpace=wrap;rounded=0;" vertex="1" parent="1">
                    <mxGeometry x="520" y="210" width="140" height="30" as="geometry"/>
                </mxCell>
                <mxCell id="19" value="+listarPedidosPorId: return" style="text;html=1;strokeColor=none;fillColor=none;align=center;verticalAlign=middle;whiteSpace=wrap;rounded=0;" vertex="1" parent="1">
                    <mxGeometry x="495" y="230" width="190" height="30" as="geometry"/>
                </mxCell>
                <mxCell id="20" value="+atualizarpedido: return" style="text;html=1;strokeColor=none;fillColor=none;align=center;verticalAlign=middle;whiteSpace=wrap;rounded=0;" vertex="1" parent="1">
                    <mxGeometry x="500" y="250" width="170" height="30" as="geometry"/>
                </mxCell>
            </root>
        </mxGraphModel>
    </diagram>
</mxfile>